<?xml version="1.0" standalone="no"?>
<!DOCTYPE svg PUBLIC "-//W3C//DTD SVG 20010904//EN"
 "http://www.w3.org/TR/2001/REC-SVG-20010904/DTD/svg10.dtd">
<svg version="1.0" xmlns="http://www.w3.org/2000/svg"
 width="588.000000pt" height="639.000000pt" viewBox="0 0 588.000000 639.000000"
 preserveAspectRatio="xMidYMid meet">
<metadata>
Created by potrace 1.10, written by Peter Selinger 2001-2011
</metadata>
<g transform="translate(0.000000,639.000000) scale(0.100000,-0.100000)"
fill="#f22c2c" stroke="none">
<path d="M2825 6029 c-44 -4 -107 -15 -140 -24 -105 -29 -200 -58 -210 -65 -5
-4 -25 -10 -43 -13 -18 -4 -57 -18 -87 -32 -30 -14 -79 -36 -108 -49 -29 -14
-78 -34 -108 -46 -30 -12 -72 -30 -94 -40 -22 -11 -62 -24 -90 -31 -27 -6 -73
-18 -102 -25 -28 -8 -83 -14 -122 -14 -98 0 -165 31 -238 110 -74 79 -121 100
-227 100 -45 0 -102 -7 -129 -15 -26 -8 -71 -22 -100 -31 -69 -21 -125 -46
-288 -126 -74 -38 -145 -68 -158 -68 -31 0 -51 53 -51 139 0 78 -5 87 -71 116
-24 11 -50 26 -58 33 -10 10 -29 13 -58 9 -68 -7 -73 -16 -73 -124 l0 -94 66
-68 c60 -61 99 -117 136 -191 7 -14 29 -53 50 -88 21 -34 38 -64 38 -67 0 -2
15 -30 34 -62 34 -59 86 -154 138 -252 16 -30 38 -67 49 -82 10 -15 19 -30 19
-34 0 -3 26 -50 57 -103 32 -53 68 -117 80 -142 13 -25 38 -72 56 -105 78
-143 111 -202 133 -240 44 -75 64 -114 64 -124 0 -6 22 -48 48 -93 27 -46 74
-130 105 -188 31 -58 65 -118 74 -135 10 -16 36 -61 58 -100 23 -38 56 -100
75 -136 l33 -65 -54 -75 c-30 -41 -72 -103 -93 -138 -39 -63 -39 -64 -19 -80
11 -9 60 -47 109 -86 121 -95 313 -251 346 -281 14 -13 29 -24 32 -24 11 0
100 -72 111 -90 5 -9 19 -29 29 -44 13 -19 16 -30 8 -38 -7 -7 -28 4 -72 38
-34 27 -88 69 -120 94 -31 25 -75 59 -96 77 -148 121 -184 151 -214 173 -18
14 -49 39 -69 56 -94 80 -112 82 -141 17 -33 -73 -83 -234 -95 -305 -8 -42 -6
-44 105 -133 41 -33 77 -63 80 -66 3 -4 37 -30 75 -60 39 -29 72 -56 75 -60 3
-3 37 -30 75 -60 39 -29 72 -55 75 -58 8 -10 243 -196 277 -219 23 -16 30 -27
26 -43 -9 -34 -30 -33 -75 2 -24 19 -45 36 -48 39 -3 3 -45 37 -93 75 -94 75
-151 120 -207 165 -19 15 -93 74 -165 131 -71 57 -143 116 -160 131 -49 46
-59 36 -67 -72 -9 -120 5 -369 23 -406 8 -15 50 -57 94 -91 44 -35 115 -91
158 -126 43 -34 106 -84 140 -110 34 -27 64 -52 67 -56 3 -4 34 -29 70 -56 36
-27 83 -64 105 -82 100 -81 249 -201 292 -235 27 -20 76 -60 110 -88 35 -28
145 -116 245 -196 101 -80 203 -162 228 -183 112 -92 114 -93 182 -88 149 11
296 44 291 65 -2 8 -92 163 -123 212 -6 8 -14 25 -20 37 -5 12 -20 39 -33 60
-20 33 -128 234 -175 328 -9 17 -18 32 -22 35 -13 11 -70 111 -70 124 0 7 7
19 15 26 15 12 21 50 9 50 -4 0 -23 -19 -44 -43 -21 -23 -48 -48 -61 -54 -106
-53 -192 -85 -239 -89 -50 -6 -57 -4 -79 19 -46 50 -11 85 134 132 102 32 158
68 208 130 26 33 54 71 60 85 11 21 19 25 52 22 l40 -2 -25 20 c-14 12 -33 24
-42 28 -40 17 -134 122 -166 186 -40 80 -39 109 2 116 47 8 45 30 -3 30 -28 0
-46 6 -60 21 -28 31 -41 16 -41 -49 0 -104 -54 -199 -127 -223 -27 -9 -40 -7
-71 8 -36 18 -37 19 -40 82 -2 35 1 76 7 91 6 19 6 31 -1 38 -18 18 -4 125 20
159 24 34 93 71 232 123 63 24 149 24 200 1 69 -32 127 -68 215 -134 93 -69
119 -96 145 -154 10 -24 21 -43 23 -43 3 0 5 18 5 40 1 51 5 57 45 65 17 4 57
15 88 26 31 10 85 25 120 33 107 23 313 77 334 86 29 13 123 37 172 45 24 4
45 11 49 16 3 5 16 9 29 9 29 0 43 19 24 31 -8 5 -31 9 -52 9 -53 0 -56 20
-11 85 23 34 34 59 28 64 -5 6 -31 4 -64 -5 -120 -32 -181 -36 -266 -19 -168
34 -224 73 -290 208 -25 50 -50 97 -56 105 -22 26 -89 53 -168 66 -83 15 -123
12 -118 -9 2 -6 41 -41 88 -77 47 -35 96 -74 110 -86 81 -68 163 -134 221
-177 36 -28 109 -86 162 -130 86 -71 95 -81 80 -92 -9 -7 -23 -13 -30 -13 -11
0 -525 402 -569 445 -37 36 -163 125 -177 125 -45 0 -175 -46 -272 -97 -16 -9
-51 -26 -76 -39 -26 -13 -49 -30 -52 -37 -4 -11 220 -200 341 -287 17 -13 32
-27 32 -32 0 -11 -33 -10 -46 0 -5 5 -31 17 -59 27 -27 9 -66 32 -85 50 -19
17 -63 54 -98 81 -35 27 -82 64 -104 82 -46 37 -65 39 -99 14 -13 -10 -41 -27
-62 -37 -21 -11 -46 -28 -54 -38 -15 -16 -14 -22 17 -80 30 -56 44 -81 80
-140 9 -14 6 -19 -14 -29 -34 -15 -45 -5 -87 79 -18 38 -36 70 -40 73 -3 3
-18 29 -34 58 -34 63 -31 72 40 112 28 15 88 49 135 76 158 90 207 115 335
171 119 52 150 61 266 80 102 16 110 16 185 -2 44 -10 92 -24 108 -33 55 -27
107 -86 142 -159 55 -114 89 -145 203 -182 94 -31 359 7 556 79 62 22 137 40
171 40 14 0 39 7 55 16 47 24 353 23 429 -1 30 -9 71 -22 90 -27 154 -44 381
-232 475 -395 17 -30 45 -45 45 -25 0 4 10 19 23 32 80 90 141 208 197 385 47
146 42 521 -9 695 -6 19 -17 61 -25 93 -8 33 -22 75 -31 95 -9 21 -20 46 -24
57 -5 11 -17 40 -27 65 -43 106 -218 392 -343 560 -14 19 -32 44 -38 55 -156
253 -193 342 -200 493 -10 189 75 291 372 442 61 31 111 63 113 71 3 17 -103
98 -188 145 -70 39 -244 98 -335 114 -38 7 -102 19 -142 26 -162 31 -303 16
-673 -71 -278 -66 -336 -77 -427 -82 -108 -7 -191 7 -260 43 -61 32 -93 63
-149 140 -81 114 -156 155 -324 178 -14 2 -61 0 -105 -5z m57 -776 c10 -9 18
-20 18 -25 0 -5 9 -21 19 -36 10 -15 79 -117 152 -227 73 -110 155 -233 181
-272 l49 -73 152 -1 c84 -1 243 -2 355 -2 189 0 202 -1 202 -19 0 -10 -3 -18
-7 -18 -5 0 -26 -17 -48 -38 -22 -21 -85 -78 -140 -127 -55 -49 -124 -111
-153 -139 -29 -28 -58 -52 -63 -54 -17 -7 -9 -41 20 -84 44 -65 123 -185 152
-232 15 -24 41 -62 58 -86 17 -24 31 -49 31 -56 0 -7 6 -17 13 -21 7 -4 38
-47 70 -95 75 -114 75 -132 3 -83 -20 14 -39 25 -42 25 -2 0 -23 12 -47 27
-23 15 -60 36 -82 47 -22 10 -76 40 -120 66 -44 26 -118 68 -165 92 -47 24
-104 56 -125 71 -38 26 -99 37 -107 19 -1 -4 -37 -36 -78 -71 -41 -35 -115
-101 -165 -146 -156 -141 -172 -155 -185 -155 -9 0 -12 70 -10 318 2 174 2
322 1 329 -1 12 -76 64 -136 95 -16 8 -75 41 -129 73 -55 31 -123 70 -150 85
-48 25 -172 98 -206 120 -8 6 -25 14 -37 20 -13 5 -23 14 -23 20 0 12 -25 11
364 16 245 3 321 7 328 16 4 7 8 147 8 310 0 275 3 328 18 328 3 0 14 -7 24
-17z m-628 -2969 c3 -9 6 -51 6 -94 0 -94 -6 -100 -98 -100 -62 0 -83 13 -111
68 -20 38 2 87 52 116 51 29 141 36 151 10z m327 -146 c26 -22 50 -68 42 -81
-13 -21 -83 -81 -116 -99 -17 -10 -45 -18 -62 -18 -17 0 -46 -5 -65 -10 -59
-18 -236 -37 -260 -28 -38 14 -60 49 -57 93 2 36 6 41 37 52 51 17 200 16 224
-2 44 -33 144 0 198 65 37 44 38 45 59 28z m140 -129 c16 -17 29 -41 29 -53 0
-38 -91 -128 -164 -164 -36 -18 -71 -32 -78 -32 -7 0 -49 -11 -93 -25 -44 -14
-91 -25 -105 -25 -37 0 -88 35 -107 74 -19 41 -12 66 19 66 13 0 43 6 68 14
57 18 188 46 216 46 13 0 50 26 90 65 38 35 75 64 82 65 8 0 27 -14 43 -31z
m-83 -461 c-3 -25 -26 -33 -65 -23 l-26 6 29 19 c41 27 66 26 62 -2z"/>
<path d="M1091 4014 c-53 -57 -231 -288 -231 -299 0 -4 -12 -22 -26 -41 -102
-133 -253 -494 -294 -699 -6 -33 -18 -85 -25 -115 -54 -214 -54 -685 0 -870 7
-25 16 -65 19 -90 3 -25 16 -79 29 -120 13 -41 34 -104 45 -140 39 -125 131
-317 207 -435 22 -33 44 -68 50 -77 86 -144 283 -365 448 -501 94 -78 333
-247 350 -247 4 0 24 -10 45 -23 70 -44 300 -141 407 -172 33 -10 76 -23 95
-30 34 -12 118 -30 210 -45 25 -4 70 -13 100 -19 85 -18 552 -16 632 2 34 9
106 23 158 32 52 10 111 23 130 31 19 7 62 20 95 29 33 10 74 23 90 30 17 7
50 20 75 30 25 9 72 29 105 45 33 15 71 32 85 38 65 29 245 144 345 220 107
82 259 218 315 283 30 34 69 79 86 99 59 68 141 186 207 296 37 62 67 114 67
118 0 3 14 28 30 56 17 28 30 55 30 61 0 5 13 37 29 72 40 86 65 177 53 189
-21 21 -82 -41 -82 -83 0 -7 -13 -41 -30 -76 -16 -34 -30 -70 -30 -77 0 -8 -5
-18 -10 -21 -6 -4 -24 -34 -40 -68 -168 -344 -425 -633 -773 -872 -268 -184
-594 -311 -917 -356 -41 -5 -93 -14 -115 -19 -67 -16 -397 -12 -499 6 -50 8
-131 22 -181 30 -49 9 -108 21 -130 29 -22 7 -67 20 -100 30 -440 127 -900
459 -1181 853 -46 65 -172 275 -189 314 -7 18 -16 36 -20 40 -11 10 -78 180
-108 273 -72 223 -107 455 -107 715 0 194 33 432 81 597 11 37 26 89 34 115 7
27 23 67 34 91 12 24 21 47 21 51 0 15 97 205 154 301 68 115 201 296 275 373
56 58 55 56 41 83 -17 30 -34 23 -89 -37z"/>
<path d="M1081 3715 c-38 -43 -47 -77 -31 -114 23 -57 117 -121 176 -121 21 0
41 16 82 64 22 26 30 66 14 66 -5 0 -29 20 -54 45 -25 25 -52 45 -60 45 -8 0
-29 11 -48 25 -19 14 -37 25 -41 25 -4 0 -21 -16 -38 -35z m88 -25 c17 -15 22
-27 18 -46 -4 -24 -3 -25 29 -20 26 5 38 2 54 -14 11 -11 20 -26 20 -34 0 -18
-56 -66 -76 -66 -40 0 -144 84 -144 117 0 23 42 83 58 83 10 -1 28 -10 41 -20z"/>
<path d="M954 3499 c-22 -11 -49 -57 -40 -67 3 -2 20 8 38 23 29 24 37 26 81
21 41 -6 56 -14 88 -49 22 -22 39 -49 39 -58 0 -17 -63 -79 -79 -79 -39 0
-148 80 -164 121 -11 27 -7 -17 4 -49 15 -45 95 -91 157 -92 31 0 79 26 92 49
23 44 -5 133 -48 148 -9 3 -24 12 -33 20 -21 18 -108 26 -135 12z"/>
<path d="M1420 3428 c-25 -34 -50 -71 -56 -83 -6 -11 -32 -58 -57 -104 -62
-110 -147 -327 -147 -372 0 -10 -6 -33 -14 -51 -59 -137 -59 -649 0 -786 8
-18 14 -40 14 -50 0 -17 24 -93 55 -181 21 -58 94 -205 128 -258 15 -24 27
-45 27 -48 0 -4 28 -43 62 -88 90 -120 248 -277 368 -367 104 -77 308 -191
405 -225 28 -9 64 -23 80 -30 17 -7 62 -20 100 -29 39 -8 102 -23 140 -32 103
-26 488 -26 595 -1 183 44 245 60 259 67 9 4 36 16 61 25 276 106 561 315 728
535 31 41 60 77 63 80 12 10 96 146 124 202 22 43 26 61 18 69 -17 17 -41 4
-55 -28 -34 -76 -131 -224 -217 -328 -84 -102 -294 -281 -411 -352 -119 -72
-278 -140 -410 -174 -41 -11 -88 -25 -105 -31 -35 -13 -136 -25 -288 -34 -121
-8 -315 8 -388 31 -26 8 -55 15 -64 15 -21 0 -122 28 -147 41 -10 5 -44 18
-76 29 -119 41 -311 151 -427 245 -140 113 -275 263 -370 410 -38 59 -45 69
-84 144 -61 113 -127 310 -155 462 -23 122 -23 464 -1 585 47 252 150 491 300
696 19 25 25 43 20 57 -10 34 -27 24 -75 -41z"/>
<path d="M856 3312 c-2 -4 11 -20 30 -35 19 -16 34 -32 34 -38 0 -6 -12 -26
-26 -45 -22 -28 -33 -34 -65 -34 -113 0 47 -35 193 -42 75 -4 72 27 -7 84 -22
16 -61 49 -86 74 -46 43 -63 52 -73 36z m102 -98 c23 -7 56 -56 45 -68 -4 -3
-19 -6 -34 -6 -30 0 -49 23 -49 59 0 23 3 24 38 15z"/>
<path d="M790 3070 c0 -11 61 -24 87 -17 15 3 13 6 -10 15 -34 14 -77 16 -77
2z"/>
<path d="M908 3018 c-2 -17 -16 -25 -68 -39 -36 -10 -75 -18 -87 -19 -12 0
-25 -5 -28 -10 -12 -19 14 -37 63 -44 26 -4 56 -13 66 -21 11 -8 30 -15 42
-15 13 0 35 -5 49 -12 14 -6 28 -8 32 -4 15 14 -26 37 -77 43 -37 4 -60 13
-72 27 -25 30 -22 36 13 36 25 0 92 14 177 36 24 7 11 23 -25 33 -59 17 -81
14 -85 -11z"/>
<path d="M4650 2893 c-8 -2 -24 -8 -35 -12 -11 -5 -33 -12 -49 -17 -47 -14
-41 -30 25 -64 83 -42 120 -70 210 -159 118 -119 201 -249 259 -410 34 -94 36
-129 16 -204 -8 -29 -22 -89 -32 -135 -21 -98 -14 -115 39 -93 17 7 44 15 59
18 14 3 35 15 45 27 36 39 113 322 113 411 0 19 5 66 12 104 12 68 11 71 -17
128 -82 164 -224 289 -410 361 -118 46 -191 60 -235 45z"/>
<path d="M4165 2821 c-42 -15 -55 -26 -82 -72 -18 -30 -32 -61 -31 -69 2 -8
20 -17 45 -22 23 -4 86 -28 140 -53 82 -39 109 -58 173 -123 115 -118 198
-307 199 -455 1 -51 -4 -66 -33 -110 -19 -29 -55 -72 -80 -97 -25 -24 -46 -51
-46 -60 0 -9 11 -27 25 -40 l26 -24 36 19 c54 29 145 122 181 185 27 46 32 65
32 121 0 67 17 108 38 95 7 -4 12 -26 12 -49 0 -23 5 -69 10 -102 8 -51 7 -65
-10 -100 -11 -23 -28 -50 -38 -61 -32 -35 -54 -75 -48 -90 4 -10 24 -14 73
-14 37 0 77 3 89 6 27 7 88 136 108 229 30 145 31 177 1 262 -56 162 -168 340
-275 436 -58 52 -149 108 -245 151 -33 15 -72 34 -87 42 -36 19 -151 17 -213
-5z"/>
<path d="M930 2747 c0 -7 -6 -22 -14 -33 -14 -19 -17 -20 -104 -6 -80 13 -135
11 -120 -4 3 -2 45 -9 93 -15 101 -11 122 -20 136 -57 14 -37 25 -16 34 66 6
53 5 62 -9 62 -9 0 -16 -6 -16 -13z"/>
<path d="M667 2563 c-17 -16 -3 -23 46 -23 70 0 80 -8 79 -65 0 -57 -10 -65
-81 -65 -83 0 -52 -12 42 -16 l83 -4 0 73 -1 72 45 0 c34 0 45 4 48 18 3 15
-8 17 -126 17 -71 0 -132 -3 -135 -7z"/>
<path d="M672 2319 c3 -8 18 -16 34 -19 27 -5 29 -8 32 -58 3 -51 2 -53 -27
-63 -44 -15 -42 -43 2 -34 17 4 43 13 57 20 14 6 41 19 60 27 114 48 137 71
83 84 -16 3 -55 15 -88 26 -85 27 -159 35 -153 17z m194 -49 c22 0 16 -15 -16
-39 -37 -27 -70 -21 -70 13 0 31 10 38 44 32 16 -3 35 -6 42 -6z"/>
<path d="M2402 2249 c2 -7 10 -15 17 -17 8 -3 12 1 9 9 -2 7 -10 15 -17 17 -8
3 -12 -1 -9 -9z"/>
<path d="M905 2124 c-11 -2 -44 -9 -72 -15 -65 -13 -74 -24 -20 -24 60 0 59
-22 -5 -70 -75 -58 -98 -79 -98 -92 0 -13 9 -15 46 -10 56 6 84 28 64 52 -14
17 0 33 95 104 58 43 53 68 -10 55z"/>
<path d="M700 2080 c-21 -13 -10 -18 29 -13 23 4 29 8 20 14 -18 11 -30 11
-49 -1z"/>
<path d="M1270 1987 c0 -21 56 -179 84 -237 94 -195 175 -310 335 -473 172
-174 402 -314 637 -387 54 -17 113 -36 129 -42 17 -6 62 -14 100 -18 39 -4 96
-11 128 -15 87 -12 79 5 -57 111 -141 110 -199 156 -258 204 -68 55 -271 218
-398 320 -52 41 -101 81 -108 87 -7 7 -41 34 -75 60 -125 96 -322 257 -330
270 -4 7 -13 13 -20 13 -7 0 -41 25 -77 55 -53 46 -90 67 -90 52z"/>
<path d="M858 1948 c8 -8 23 -8 54 -1 l43 11 -54 1 c-42 1 -52 -2 -43 -11z"/>
<path d="M975 1920 c-3 -5 -17 -10 -30 -10 -13 0 -26 -4 -29 -9 -4 -5 -25 -12
-47 -16 -50 -9 -129 -42 -129 -55 0 -14 22 -12 65 6 56 23 81 9 89 -51 4 -26
6 -48 4 -49 -2 -1 -25 -12 -53 -26 -27 -13 -43 -26 -36 -28 7 -2 23 0 34 6 12
6 57 21 99 33 96 27 124 51 51 43 -26 -3 -53 -1 -60 3 -6 5 -15 31 -18 58 l-7
50 46 13 c29 7 46 18 46 27 0 17 -16 20 -25 5z"/>
<path d="M4345 1858 c-121 -22 -236 -38 -318 -43 -48 -3 -106 -9 -130 -15 -53
-12 -197 -28 -348 -40 -64 -5 -143 -13 -175 -19 -32 -6 -78 -11 -103 -11 -78
0 -180 -27 -240 -63 -31 -18 -71 -40 -89 -47 -18 -7 -35 -16 -37 -20 -3 -4 32
-75 77 -156 44 -82 89 -165 99 -184 9 -20 46 -58 81 -85 35 -28 72 -57 83 -67
110 -92 202 -158 222 -158 47 0 337 172 351 208 3 8 -3 21 -14 29 -10 7 -46
36 -79 63 -33 26 -143 115 -245 196 -243 193 -260 208 -260 227 0 35 58 17
121 -37 19 -17 66 -56 104 -86 37 -30 73 -61 80 -67 7 -7 53 -43 102 -80 89
-67 182 -144 215 -175 10 -10 26 -18 35 -18 22 0 177 159 227 232 22 33 36 63
33 72 -4 9 -45 46 -93 83 -128 101 -148 119 -140 132 18 28 62 10 146 -60 119
-100 127 -104 146 -88 9 7 20 22 25 34 5 11 20 38 34 60 13 22 24 47 25 56 0
19 37 54 66 63 22 7 84 58 84 69 0 8 -19 7 -85 -5z"/>
<path d="M966 1598 c-88 -45 -115 -63 -107 -71 9 -9 16 -8 29 1 9 7 27 16 39
21 11 6 24 15 28 20 6 11 65 16 65 6 0 -12 -46 -92 -73 -127 -20 -25 -26 -42
-20 -52 7 -13 21 -9 88 24 44 22 85 40 90 40 6 0 23 11 39 24 41 34 15 42 -36
12 -72 -43 -86 -49 -103 -42 -15 5 -15 9 2 37 10 16 35 53 56 80 36 48 45 73
30 82 -5 3 -61 -22 -127 -55z"/>
<path d="M4525 1590 c4 -6 24 -22 46 -36 24 -15 39 -32 39 -44 0 -11 -4 -20
-10 -20 -5 0 -12 -11 -16 -25 -8 -33 -43 -41 -84 -20 -23 12 -35 14 -43 6 -7
-7 -3 -13 14 -21 13 -5 31 -14 39 -19 57 -32 172 -83 177 -78 8 9 -16 37 -32
37 -7 0 -24 9 -38 20 -23 19 -25 24 -15 48 7 15 20 37 31 49 16 19 23 20 46
10 14 -6 33 -17 42 -24 20 -17 49 -17 49 1 0 7 -21 23 -47 35 -27 12 -77 37
-113 56 -65 35 -97 44 -85 25z"/>
<path d="M1163 1434 c-18 -8 -33 -18 -33 -23 0 -5 -8 -11 -17 -15 -10 -3 -31
-15 -48 -26 -16 -11 -40 -25 -52 -31 -21 -11 -38 -37 -29 -46 3 -4 105 54 116
66 8 10 44 30 70 42 24 10 40 26 40 42 0 10 -9 8 -47 -9z"/>
<path d="M4430 1390 c0 -5 4 -10 9 -10 5 0 16 -6 23 -13 7 -6 30 -23 50 -37
21 -14 36 -29 35 -35 -7 -19 -109 -24 -155 -7 -37 13 -45 13 -52 1 -6 -9 -1
-22 17 -41 15 -16 30 -28 35 -28 4 0 38 -22 75 -50 45 -32 71 -46 78 -39 10
10 -39 58 -61 59 -14 0 -54 43 -54 59 0 12 57 11 185 -2 42 -4 25 28 -32 62
-32 19 -62 40 -66 48 -4 7 -14 13 -21 13 -8 0 -19 7 -26 15 -14 17 -40 20 -40
5z"/>
<path d="M1150 1314 c-41 -30 -85 -58 -97 -64 -13 -5 -23 -18 -23 -28 0 -19
73 -124 90 -130 21 -7 9 32 -21 70 -28 34 -30 42 -20 64 6 13 23 29 38 35 25
9 30 7 50 -18 13 -15 23 -34 23 -40 0 -7 9 -13 20 -13 26 0 25 9 -5 50 -32 43
-32 67 0 82 20 9 31 8 50 -2 14 -7 25 -19 25 -25 0 -15 33 -45 48 -45 7 0 12
6 12 13 0 19 -83 107 -100 106 -8 0 -49 -25 -90 -55z"/>
<path d="M4286 1223 c-13 -13 -3 -24 77 -87 45 -36 87 -70 94 -76 7 -5 20 -10
29 -10 15 0 14 4 -7 26 -37 40 -186 153 -193 147z"/>
<path d="M1315 1170 c-21 -22 -42 -40 -47 -40 -4 0 -23 -16 -42 -35 -20 -19
-40 -35 -46 -35 -5 0 -10 -10 -10 -21 0 -21 1 -21 35 5 20 15 47 38 62 52 39
36 55 32 48 -13 -6 -38 -9 -45 -41 -116 -30 -67 -5 -67 77 -1 102 81 129 106
129 116 0 17 -19 7 -80 -42 -34 -27 -67 -50 -72 -50 -17 0 -20 30 -4 45 9 9
16 25 16 36 0 11 7 30 15 42 17 27 24 88 10 94 -6 2 -28 -15 -50 -37z"/>
<path d="M4227 1163 c-13 -13 -7 -39 18 -76 22 -31 30 -36 51 -31 21 5 34 -2
74 -41 32 -32 50 -43 55 -35 4 7 -6 24 -26 42 -19 16 -62 56 -96 89 -64 62
-66 63 -76 52z"/>
<path d="M3210 1037 c0 -25 76 -142 94 -145 31 -6 66 8 66 26 0 9 -30 41 -66
70 -74 61 -94 71 -94 49z"/>
<path d="M4100 1026 c-13 -17 -16 -14 114 -133 38 -35 72 -63 77 -63 19 0 7
19 -36 59 -49 45 -56 61 -26 61 41 0 28 18 -36 51 -36 19 -69 35 -73 37 -4 1
-13 -4 -20 -12z"/>
<path d="M4310 980 c0 -10 -8 -23 -17 -29 -10 -5 -16 -11 -13 -13 20 -16 61
-38 70 -38 15 0 12 18 -7 61 -20 42 -33 50 -33 19z"/>
<path d="M1535 974 c-64 -34 -100 -81 -110 -145 -6 -42 -4 -49 25 -83 33 -37
64 -45 101 -26 10 6 19 17 19 25 0 18 -1 18 -36 5 -35 -14 -70 8 -79 48 -8 37
5 68 47 115 27 30 41 37 69 37 41 0 66 -22 71 -63 4 -40 22 -38 26 3 5 65 -74
116 -133 84z"/>
<path d="M3980 935 c0 -4 79 -112 105 -142 5 -7 21 -26 35 -43 25 -31 40 -38
40 -19 0 12 -80 120 -122 163 -15 17 -28 33 -28 38 0 4 -7 8 -15 8 -8 0 -15
-2 -15 -5z"/>
<path d="M3927 884 c-3 -4 5 -21 18 -39 31 -39 31 -65 2 -86 -54 -39 -96 -29
-118 29 -9 24 -29 30 -29 8 0 -17 126 -209 140 -214 17 -6 11 29 -10 55 -27
34 -25 55 6 82 41 35 73 32 95 -8 10 -19 25 -39 34 -43 24 -14 19 24 -7 52
-13 13 -30 38 -38 54 -21 43 -71 116 -80 116 -4 0 -9 -3 -13 -6z"/>
<path d="M1722 835 c-115 -63 -139 -220 -40 -254 64 -23 155 39 176 118 25
102 -54 182 -136 136z m78 -28 c48 -39 40 -113 -17 -169 -40 -39 -82 -42 -118
-8 -30 29 -32 62 -4 106 42 68 104 100 139 71z"/>
<path d="M3684 746 c-29 -13 -64 -66 -64 -98 0 -28 49 -114 79 -141 17 -15 45
-30 61 -34 25 -4 36 1 65 30 29 29 36 43 33 69 -4 42 -22 43 -26 1 -2 -24 -12
-37 -37 -53 -40 -25 -58 -19 -99 32 -14 18 -31 38 -36 45 -6 7 -10 30 -10 52
0 51 32 77 84 67 36 -7 54 5 33 22 -23 18 -52 21 -83 8z"/>
<path d="M1901 707 c-29 -60 -27 -70 9 -62 25 6 30 3 34 -17 13 -60 15 -58 11
13 -7 121 -20 136 -54 66z"/>
<path d="M2044 643 c-10 -21 -22 -40 -26 -43 -4 -3 -11 -18 -17 -33 -8 -20
-16 -26 -33 -24 -21 2 -23 -2 -23 -47 0 -62 20 -72 40 -19 9 21 20 45 25 53 5
8 19 35 30 60 11 25 25 53 30 62 12 22 12 28 2 28 -5 0 -17 -17 -28 -37z"/>
<path d="M3373 615 c-34 -35 -43 -65 -20 -65 6 1 21 15 32 33 30 48 58 46 105
-4 37 -40 40 -48 40 -99 -1 -66 -23 -100 -67 -100 -36 0 -78 42 -88 88 -8 41
-25 42 -25 1 0 -38 28 -75 75 -100 39 -21 67 -18 102 11 72 58 39 201 -57 250
-51 26 -59 25 -97 -15z"/>
<path d="M2145 628 c-39 -23 -85 -106 -85 -155 0 -90 128 -157 183 -95 8 9 18
33 22 53 6 33 4 37 -27 52 -45 22 -64 4 -25 -25 32 -23 34 -39 9 -61 -29 -27
-67 -21 -101 16 -47 49 -37 111 27 180 40 42 72 36 106 -18 16 -24 33 -42 37
-39 19 11 8 47 -22 75 -34 31 -86 39 -124 17z"/>
<path d="M1854 605 c-3 -14 -10 -25 -14 -25 -9 0 -32 -61 -25 -68 10 -10 35 8
35 26 0 10 7 27 15 38 16 22 20 54 5 54 -5 0 -12 -11 -16 -25z"/>
<path d="M3265 571 c-3 -6 -3 -27 1 -49 6 -39 5 -40 -39 -61 -53 -25 -87 -17
-87 22 0 37 -12 67 -26 67 -15 0 -12 -29 12 -117 8 -28 14 -72 14 -97 0 -40 3
-46 20 -46 19 0 20 4 15 38 -4 20 -9 44 -11 53 -9 33 68 69 106 49 13 -7 20
-21 20 -40 0 -34 9 -60 21 -60 15 0 10 68 -12 161 -11 49 -22 89 -24 89 -2 0
-6 -4 -10 -9z"/>
<path d="M2453 563 c-29 -6 -56 -49 -49 -79 4 -13 31 -42 61 -64 30 -22 55
-48 55 -58 0 -30 -17 -45 -51 -45 -24 0 -38 8 -58 31 -29 36 -41 40 -41 15 1
-37 58 -83 102 -83 30 0 66 32 74 66 10 39 -10 71 -66 105 -53 32 -56 39 -40
70 20 37 100 16 100 -27 0 -8 7 -14 15 -14 25 0 18 46 -11 69 -26 20 -44 23
-91 14z"/>
<path d="M2693 538 c-15 -18 -53 -99 -53 -112 0 -6 -14 -38 -30 -70 -46 -90
-38 -118 12 -46 21 31 34 40 55 40 37 -1 73 -32 73 -64 0 -16 6 -26 15 -26 19
0 19 30 0 56 -8 10 -15 35 -15 54 0 19 -7 48 -15 64 -8 15 -15 42 -15 60 0 41
-13 62 -27 44z m5 -84 c29 -8 31 -58 2 -74 -29 -16 -40 -4 -40 41 0 41 2 42
38 33z"/>
<path d="M2821 405 c1 -110 4 -135 16 -135 12 0 13 14 7 80 l-7 80 26 0 c19 0
28 -7 36 -30 5 -16 14 -30 18 -30 5 0 19 -22 32 -50 30 -63 51 -66 51 -6 0 40
-2 44 -32 52 -21 6 -34 17 -36 29 -2 11 -9 25 -16 30 -7 6 -23 30 -36 55 -22
43 -36 60 -53 60 -4 0 -7 -61 -6 -135z"/>
<path d="M2972 514 c1 -9 9 -19 16 -22 9 -3 13 2 10 14 -1 9 -9 19 -16 22 -9
3 -13 -2 -10 -14z"/>
</g>
</svg>
